<svg xmlns="http://www.w3.org/2000/svg" width="1600" height="900" viewBox="0 0 1600 900"><defs><linearGradient id="hd" x1="0" x2="1"><stop stop-color="#10294D"/><stop offset="1" stop-color="#275EFE"/></linearGradient><marker id="a" markerWidth="10" markerHeight="10" refX="8" refY="5" orient="auto"><path d="M0 0 L10 5 L0 10z" fill="#24364B"/></marker></defs><rect width="1600" height="900" fill="#F5F8FC"/><rect x="30" y="30" width="1540" height="840" rx="30" fill="#fff" stroke="#D8E2EE"/><rect x="30" y="30" width="1540" height="135" rx="30" fill="url(#hd)"/><text x="70" y="88" font-family="Arial" font-weight="700" font-size="42" fill="#fff">Arquitectura de seguridad ENS - GRCREAL</text><text x="70" y="130" font-family="Arial" font-size="20" fill="#DDE9FB">Categoría MEDIA · identidad, portal, servicios internos y trazabilidad</text><rect x="80" y="320" width="240" height="180" rx="18" fill="#fff" stroke="#275EFE" stroke-width="3"/><rect x="80" y="320" width="240" height="52" rx="18" fill="#275EFE"/><text x="100" y="354" font-family="Arial" font-weight="700" font-size="18" fill="#fff">USUARIOS</text><text x="102" y="408" font-family="Arial" font-size="16" fill="#46576B">MFA</text><text x="102" y="438" font-family="Arial" font-size="16" fill="#46576B">dispositivo gestionado</text><text x="102" y="468" font-family="Arial" font-size="16" fill="#46576B">acceso condicional</text><rect x="430" y="250" width="280" height="320" rx="18" fill="#fff" stroke="#0F766E" stroke-width="3"/><rect x="430" y="250" width="280" height="52" rx="18" fill="#0F766E"/><text x="450" y="284" font-family="Arial" font-weight="700" font-size="18" fill="#fff">ZONA DE ACCESO</text><text x="452" y="338" font-family="Arial" font-size="16" fill="#46576B">WAF + API Gateway</text><text x="452" y="368" font-family="Arial" font-size="16" fill="#46576B">ZTNA administrativo</text><text x="452" y="398" font-family="Arial" font-size="16" fill="#46576B">protección DDoS</text><rect x="820" y="220" width="300" height="380" rx="18" fill="#fff" stroke="#7C3AED" stroke-width="3"/><rect x="820" y="220" width="300" height="52" rx="18" fill="#7C3AED"/><text x="840" y="254" font-family="Arial" font-weight="700" font-size="18" fill="#fff">PLATAFORMA GRCREAL</text><text x="842" y="308" font-family="Arial" font-size="16" fill="#46576B">front-end</text><text x="842" y="338" font-family="Arial" font-size="16" fill="#46576B">servicios API</text><text x="842" y="368" font-family="Arial" font-size="16" fill="#46576B">procesamiento asíncrono</text><text x="842" y="398" font-family="Arial" font-size="16" fill="#46576B">secretos en vault</text><rect x="1230" y="280" width="270" height="260" rx="18" fill="#fff" stroke="#C2410C" stroke-width="3"/><rect x="1230" y="280" width="270" height="52" rx="18" fill="#C2410C"/><text x="1250" y="314" font-family="Arial" font-weight="700" font-size="18" fill="#fff">DATOS Y LOGS</text><text x="1252" y="368" font-family="Arial" font-size="16" fill="#46576B">BBDD cifrada</text><text x="1252" y="398" font-family="Arial" font-size="16" fill="#46576B">almacenamiento privado</text><text x="1252" y="428" font-family="Arial" font-size="16" fill="#46576B">SIEM inmutable</text><line x1="320" y1="410.0" x2="430" y2="410.0" stroke="#24364B" stroke-width="3" marker-end="url(#a)"/><line x1="710" y1="410.0" x2="820" y2="410.0" stroke="#24364B" stroke-width="3" marker-end="url(#a)"/><line x1="1120" y1="410.0" x2="1230" y2="410.0" stroke="#24364B" stroke-width="3" marker-end="url(#a)"/><text x="70" y="825" font-family="Arial" font-size="17" fill="#C43F31">Arquitectura de demostración. Los flujos administrativos y de datos están segregados y registrados.</text></svg>