<svg xmlns="http://www.w3.org/2000/svg" width="1600" height="900" viewBox="0 0 1600 900">
    <defs>
      <linearGradient id="bg" x1="0" y1="0" x2="1" y2="1">
        <stop offset="0%" stop-color="#F6FAFF"/>
        <stop offset="100%" stop-color="#ECF2F9"/>
      </linearGradient>
      <linearGradient id="headGrad" x1="0" y1="0" x2="1" y2="0">
        <stop offset="0%" stop-color="#112C52"/>
        <stop offset="100%" stop-color="#163B6D"/>
      </linearGradient>
      <linearGradient id="accentBar" x1="0" y1="0" x2="1" y2="0">
        <stop offset="0%" stop-color="#7C3AED"/>
        <stop offset="100%" stop-color="#A78BFA"/>
      </linearGradient>
      <filter id="shadowLg" x="-20%" y="-20%" width="140%" height="140%">
        <feDropShadow dx="0" dy="18" stdDeviation="22" flood-color="#6B7A90" flood-opacity="0.18"/>
      </filter>
      <filter id="shadowSm" x="-15%" y="-15%" width="130%" height="130%">
        <feDropShadow dx="0" dy="10" stdDeviation="14" flood-color="#90A2B8" flood-opacity="0.16"/>
      </filter>
    </defs>
    <rect width="100%" height="100%" fill="url(#bg)"/>
    <g filter="url(#shadowLg)">
      <rect x="32" y="24" width="1536" height="852" rx="34" fill="#ffffff"/>
    </g>
    <rect x="32" y="24" width="1536" height="146" rx="34" fill="url(#headGrad)"/>
    <rect x="32" y="146" width="1536" height="10" fill="url(#accentBar)"/>
    <text x="72" y="92" font-family="Inter,Segoe UI,Arial" font-size="50" font-weight="850" fill="#ffffff">Gestión de identidades y accesos</text>
    <text x="72" y="130" font-family="Inter,Segoe UI,Arial" font-size="24" font-weight="500" fill="#D8E7FF">A.5.15 · A.5.18 · Altas, cambios, revisiones y bajas</text>
    <rect x="1270" y="54" rx="18" width="230" height="42" fill="#ffffff" opacity="0.14"/>
    <text x="1385" y="81" text-anchor="middle" font-family="Inter,Segoe UI,Arial" font-size="17" font-weight="700" fill="#ffffff">Evidencia de demostración</text>
    <g>
      <rect x="1140" y="212" width="390" height="470" rx="26" fill="#F8FBFF" stroke="#DCE6F2"/>
      <text x="1170" y="252" font-family="Inter,Segoe UI,Arial" font-size="28" font-weight="800" fill="#0F172A">Puntos clave</text>
      
        <rect x="1140" y="272" rx="16" width="390" height="44" fill="#ffffff" stroke="#DBE6F3"/>
        <circle cx="1164" cy="294" r="6" fill="#A78BFA"/>
        <text x="1182" y="300" font-family="Inter,Segoe UI,Arial" font-size="18" font-weight="600" fill="#16304F">A.5.15 Control de acceso</text>
        
        <rect x="1140" y="332" rx="16" width="390" height="44" fill="#ffffff" stroke="#DBE6F3"/>
        <circle cx="1164" cy="354" r="6" fill="#A78BFA"/>
        <text x="1182" y="360" font-family="Inter,Segoe UI,Arial" font-size="18" font-weight="600" fill="#16304F">A.5.16 Gestión de identidades</text>
        
        <rect x="1140" y="392" rx="16" width="390" height="44" fill="#ffffff" stroke="#DBE6F3"/>
        <circle cx="1164" cy="414" r="6" fill="#A78BFA"/>
        <text x="1182" y="420" font-family="Inter,Segoe UI,Arial" font-size="18" font-weight="600" fill="#16304F">A.5.17 Autenticación</text>
        
        <rect x="1140" y="452" rx="16" width="390" height="44" fill="#ffffff" stroke="#DBE6F3"/>
        <circle cx="1164" cy="474" r="6" fill="#A78BFA"/>
        <text x="1182" y="480" font-family="Inter,Segoe UI,Arial" font-size="18" font-weight="600" fill="#16304F">A.5.18 Derechos de acceso</text>
        
    </g>
    
        <g filter="url(#shadowSm)">
          <rect x="68" y="212" width="535" height="210" rx="24" fill="#ffffff" stroke="#DCE6F2"/>
        </g>
        <circle cx="126" cy="264" r="22" fill="#7C3AED" opacity="0.12"/>
        <g transform="translate(104,242)" stroke="#7C3AED" stroke-width="2.4" stroke-linecap="round" stroke-linejoin="round" fill="none">
          <circle cx="15" cy="16" r="6"/><circle cx="30" cy="14" r="5"/><path d="M6 35c2-6 7-9 12-9s10 3 12 9"/><path d="M24 34c1.6-4.8 5-7.2 9-7.2 2.8 0 5.2 1 7 3.2"/>
        </g>
        <text x="158" y="270" font-family="Inter,Segoe UI,Arial" font-size="30" font-weight="800" fill="#0F172A">Solicitud</text>
        <text x="104" y="314" font-family="Inter,Segoe UI,Arial" font-size="18" fill="#334155"><tspan x="104" dy="26">• Necesidad justificada</tspan><tspan x="104" dy="26">• Rol y sistema definidos</tspan><tspan x="104" dy="26">• Aprobador identificado</tspan></text>
        
        <g filter="url(#shadowSm)">
          <rect x="633" y="212" width="535" height="210" rx="24" fill="#ffffff" stroke="#DCE6F2"/>
        </g>
        <circle cx="691" cy="264" r="22" fill="#7C3AED" opacity="0.12"/>
        <g transform="translate(669,242)" stroke="#7C3AED" stroke-width="2.4" stroke-linecap="round" stroke-linejoin="round" fill="none">
          <circle cx="15" cy="16" r="6"/><circle cx="30" cy="14" r="5"/><path d="M6 35c2-6 7-9 12-9s10 3 12 9"/><path d="M24 34c1.6-4.8 5-7.2 9-7.2 2.8 0 5.2 1 7 3.2"/>
        </g>
        <text x="723" y="270" font-family="Inter,Segoe UI,Arial" font-size="30" font-weight="800" fill="#0F172A">Provisionamiento</text>
        <text x="669" y="314" font-family="Inter,Segoe UI,Arial" font-size="18" fill="#334155"><tspan x="669" dy="26">• Alta nominativa</tspan><tspan x="669" dy="26">• MFA si aplica</tspan><tspan x="669" dy="26">• Registro de la operación</tspan></text>
        
        <g filter="url(#shadowSm)">
          <rect x="68" y="448" width="535" height="210" rx="24" fill="#ffffff" stroke="#DCE6F2"/>
        </g>
        <circle cx="126" cy="500" r="22" fill="#7C3AED" opacity="0.12"/>
        <g transform="translate(104,478)" stroke="#7C3AED" stroke-width="2.4" stroke-linecap="round" stroke-linejoin="round" fill="none">
          <circle cx="15" cy="16" r="6"/><circle cx="30" cy="14" r="5"/><path d="M6 35c2-6 7-9 12-9s10 3 12 9"/><path d="M24 34c1.6-4.8 5-7.2 9-7.2 2.8 0 5.2 1 7 3.2"/>
        </g>
        <text x="158" y="506" font-family="Inter,Segoe UI,Arial" font-size="30" font-weight="800" fill="#0F172A">Recertificación</text>
        <text x="104" y="550" font-family="Inter,Segoe UI,Arial" font-size="18" fill="#334155"><tspan x="104" dy="26">• Revisión periódica</tspan><tspan x="104" dy="26">• Validación del responsable</tspan><tspan x="104" dy="26">• Ajuste de privilegios</tspan></text>
        
        <g filter="url(#shadowSm)">
          <rect x="633" y="448" width="535" height="210" rx="24" fill="#ffffff" stroke="#DCE6F2"/>
        </g>
        <circle cx="691" cy="500" r="22" fill="#7C3AED" opacity="0.12"/>
        <g transform="translate(669,478)" stroke="#7C3AED" stroke-width="2.4" stroke-linecap="round" stroke-linejoin="round" fill="none">
          <circle cx="15" cy="16" r="6"/><circle cx="30" cy="14" r="5"/><path d="M6 35c2-6 7-9 12-9s10 3 12 9"/><path d="M24 34c1.6-4.8 5-7.2 9-7.2 2.8 0 5.2 1 7 3.2"/>
        </g>
        <text x="723" y="506" font-family="Inter,Segoe UI,Arial" font-size="30" font-weight="800" fill="#0F172A">Baja</text>
        <text x="669" y="550" font-family="Inter,Segoe UI,Arial" font-size="18" fill="#334155"><tspan x="669" dy="26">• Revocación inmediata</tspan><tspan x="669" dy="26">• Retirada de tokens</tspan><tspan x="669" dy="26">• Conservación de evidencia</tspan></text>
        
    <rect x="68" y="770" width="1462" height="72" rx="24" fill="#F8FBFF" stroke="#DCE6F2"/>
    <text x="96" y="812" font-family="Inter,Segoe UI,Arial" font-size="18" fill="#4B5E76">OpenTrust Group · Auditoria365 · Evidencia visual de apoyo</text>
    <g transform="translate(1300,788)">
      <rect x="0" y="0" width="190" height="38" rx="12" fill="#7C3AED" opacity="0.12"/>
      <text x="95" y="25" text-anchor="middle" font-family="Inter,Segoe UI,Arial" font-size="16" font-weight="800" fill="#7C3AED">Uso en presentación</text>
    </g>
    </svg>