<svg xmlns="http://www.w3.org/2000/svg" width="1500" height="820" viewBox="0 0 1500 820"><defs><linearGradient id="bg" x1="0" y1="0" x2="1" y2="1"><stop offset="0%" stop-color="#F6FAFF"/><stop offset="100%" stop-color="#ECF2F9"/></linearGradient><linearGradient id="hd" x1="0" y1="0" x2="1" y2="0"><stop offset="0%" stop-color="#10294D"/><stop offset="100%" stop-color="#183B6A"/></linearGradient><filter id="sh"><feDropShadow dx="0" dy="14" stdDeviation="20" flood-color="#8EA0B7" flood-opacity=".18"/></filter></defs><rect width="100%" height="100%" fill="url(#bg)"/><g filter="url(#sh)"><rect x="28" y="24" width="1444" height="772" rx="34" fill="#fff"/></g><rect x="28" y="24" width="1444" height="146" rx="34" fill="url(#hd)"/><rect x="28" y="148" width="1444" height="9" fill="#7C3AED"/><text x="68" y="88" font-family="Inter,Segoe UI,Arial" font-size="46" font-weight="850" fill="#fff">Inventario detallado de servidores</text><text x="68" y="126" font-family="Inter,Segoe UI,Arial" font-size="21" fill="#D8E7FF">Sistemas, función, sistema operativo, criticidad y protección</text><rect x="58.0" y="210" width="328.0" height="450" rx="24" fill="#fff" stroke="#D7E2F0"/><rect x="82.0" y="236" width="58" height="58" rx="18" fill="#7C3AED" opacity=".12"/><circle cx="111.0" cy="265" r="10" fill="#7C3AED"/><text x="86.0" y="330" font-family="Inter,Segoe UI,Arial" font-size="28" font-weight="800" fill="#0F172A">Producción</text><text x="86.0" y="372" font-family="Inter,Segoe UI,Arial" font-size="18" fill="#334155"><tspan x="86.0" dy="25">• WEB-PRD-01 · AKS</tspan><tspan x="86.0" dy="25">• DB-PRD-01 · PostgreSQL</tspan><tspan x="86.0" dy="25">• APP-GRC-01 · Auditoria365</tspan><tspan x="86.0" dy="25">• Criticidad alta/crítica</tspan></text><rect x="410.0" y="210" width="328.0" height="450" rx="24" fill="#fff" stroke="#D7E2F0"/><rect x="434.0" y="236" width="58" height="58" rx="18" fill="#7C3AED" opacity=".12"/><circle cx="463.0" cy="265" r="10" fill="#7C3AED"/><text x="438.0" y="330" font-family="Inter,Segoe UI,Arial" font-size="28" font-weight="800" fill="#0F172A">Gestión</text><text x="438.0" y="372" font-family="Inter,Segoe UI,Arial" font-size="18" fill="#334155"><tspan x="438.0" dy="25">• JMP-ADM-01 · Bastion</tspan><tspan x="438.0" dy="25">• SIEM-01 · Sentinel</tspan><tspan x="438.0" dy="25">• BKP-01 · Azure Backup</tspan><tspan x="438.0" dy="25">• Acceso con PIM</tspan></text><rect x="762.0" y="210" width="328.0" height="450" rx="24" fill="#fff" stroke="#D7E2F0"/><rect x="786.0" y="236" width="58" height="58" rx="18" fill="#7C3AED" opacity=".12"/><circle cx="815.0" cy="265" r="10" fill="#7C3AED"/><text x="790.0" y="330" font-family="Inter,Segoe UI,Arial" font-size="28" font-weight="800" fill="#0F172A">Servicios internos</text><text x="790.0" y="372" font-family="Inter,Segoe UI,Arial" font-size="18" fill="#334155"><tspan x="790.0" dy="25">• FILE-INT-01 · Documentos</tspan><tspan x="790.0" dy="25">• MON-OPS-01 · Monitorización</tspan><tspan x="790.0" dy="25">• AUT-CICD-01 · GitHub Actions</tspan><tspan x="790.0" dy="25">• EDR y parcheado</tspan></text><rect x="1114.0" y="210" width="328.0" height="450" rx="24" fill="#fff" stroke="#D7E2F0"/><rect x="1138.0" y="236" width="58" height="58" rx="18" fill="#7C3AED" opacity=".12"/><circle cx="1167.0" cy="265" r="10" fill="#7C3AED"/><text x="1142.0" y="330" font-family="Inter,Segoe UI,Arial" font-size="28" font-weight="800" fill="#0F172A">Continuidad</text><text x="1142.0" y="372" font-family="Inter,Segoe UI,Arial" font-size="18" fill="#334155"><tspan x="1142.0" dy="25">• DB-DR-01 · Réplica</tspan><tspan x="1142.0" dy="25">• APP-DR-01 · Warm standby</tspan><tspan x="1142.0" dy="25">• BKP-IMM-01 · Inmutable</tspan><tspan x="1142.0" dy="25">• Azure North Europe</tspan></text><rect x="58" y="704" width="1384" height="58" rx="18" fill="#F8FBFF" stroke="#D7E2F0"/><text x="84" y="741" font-family="Inter,Segoe UI,Arial" font-size="16" fill="#52647C">DATOS DE DEMOSTRACIÓN · OpenTrust Group · Auditoria365</text></svg>