<svg xmlns="http://www.w3.org/2000/svg" width="1400" height="820" viewBox="0 0 1400 820"><defs><linearGradient id="bg" x1="0" y1="0" x2="1" y2="1"><stop offset="0%" stop-color="#F7FAFF"/><stop offset="100%" stop-color="#EEF4FB"/></linearGradient><filter id="sh"><feDropShadow dx="0" dy="14" stdDeviation="18" flood-color="#90A2B8" flood-opacity="0.16"/></filter></defs><rect width="100%" height="100%" fill="url(#bg)"/><g filter="url(#sh)"><rect x="36" y="28" width="1328" height="764" rx="32" fill="#fff"/></g><text x="72" y="88" font-family="Inter,Segoe UI,Arial" font-size="42" font-weight="850" fill="#0F172A">Cumplimiento por dominio</text><text x="72" y="124" font-family="Inter,Segoe UI,Arial" font-size="20" fill="#52647C">Grado de cobertura por bloques del SGSI</text><line x1="110" y1="690" x2="1280" y2="690" stroke="#C7D3E3" stroke-width="2"/><rect x="140" y="344" width="70" height="346" rx="12" fill="#275EFE"/><text x="175.0" y="334" text-anchor="middle" font-family="Inter,Segoe UI,Arial" font-size="18" font-weight="800" fill="#16304F">78</text><text x="175.0" y="730" text-anchor="middle" font-family="Inter,Segoe UI,Arial" font-size="16" fill="#52647C">Gobierno</text><rect x="262" y="362" width="70" height="328" rx="12" fill="#7C3AED"/><text x="297.0" y="352" text-anchor="middle" font-family="Inter,Segoe UI,Arial" font-size="18" font-weight="800" fill="#16304F">74</text><text x="297.0" y="730" text-anchor="middle" font-family="Inter,Segoe UI,Arial" font-size="16" fill="#52647C">Personas</text><rect x="384" y="330" width="70" height="360" rx="12" fill="#0F766E"/><text x="419.0" y="320" text-anchor="middle" font-family="Inter,Segoe UI,Arial" font-size="18" font-weight="800" fill="#16304F">81</text><text x="419.0" y="730" text-anchor="middle" font-family="Inter,Segoe UI,Arial" font-size="16" fill="#52647C">Físico</text><rect x="506" y="384" width="70" height="306" rx="12" fill="#E65A3A"/><text x="541.0" y="374" text-anchor="middle" font-family="Inter,Segoe UI,Arial" font-size="18" font-weight="800" fill="#16304F">69</text><text x="541.0" y="730" text-anchor="middle" font-family="Inter,Segoe UI,Arial" font-size="16" fill="#52647C">Tecnología</text><rect x="628" y="410" width="70" height="280" rx="12" fill="#B7791F"/><text x="663.0" y="400" text-anchor="middle" font-family="Inter,Segoe UI,Arial" font-size="18" font-weight="800" fill="#16304F">63</text><text x="663.0" y="730" text-anchor="middle" font-family="Inter,Segoe UI,Arial" font-size="16" fill="#52647C">Proveedores</text><rect x="750" y="375" width="70" height="315" rx="12" fill="#17C0E9"/><text x="785.0" y="365" text-anchor="middle" font-family="Inter,Segoe UI,Arial" font-size="18" font-weight="800" fill="#16304F">71</text><text x="785.0" y="730" text-anchor="middle" font-family="Inter,Segoe UI,Arial" font-size="16" fill="#52647C">Mejora</text><text x="72" y="770" font-family="Inter,Segoe UI,Arial" font-size="16" fill="#6B7A90">DATOS DE DEMOSTRACIÓN · OpenTrust Group · Auditoria365</text></svg>