<svg xmlns="http://www.w3.org/2000/svg" width="1400" height="820" viewBox="0 0 1400 820"><defs><linearGradient id="bg" x1="0" y1="0" x2="1" y2="1"><stop offset="0%" stop-color="#F7FAFF"/><stop offset="100%" stop-color="#EEF4FB"/></linearGradient><filter id="sh"><feDropShadow dx="0" dy="14" stdDeviation="18" flood-color="#90A2B8" flood-opacity="0.16"/></filter></defs><rect width="100%" height="100%" fill="url(#bg)"/><g filter="url(#sh)"><rect x="36" y="28" width="1328" height="764" rx="32" fill="#fff"/></g><text x="72" y="88" font-family="Inter,Segoe UI,Arial" font-size="42" font-weight="850" fill="#0F172A">Incidentes y hallazgos por categoría</text><text x="72" y="124" font-family="Inter,Segoe UI,Arial" font-size="20" fill="#52647C">Distribución demo del periodo de auditoría</text><line x1="110" y1="690" x2="1280" y2="690" stroke="#C7D3E3" stroke-width="2"/><rect x="140" y="672" width="70" height="18" rx="12" fill="#DC2626"/><text x="175.0" y="662" text-anchor="middle" font-family="Inter,Segoe UI,Arial" font-size="18" font-weight="800" fill="#16304F">0</text><text x="175.0" y="730" text-anchor="middle" font-family="Inter,Segoe UI,Arial" font-size="16" fill="#52647C">Críticos</text><rect x="262" y="582" width="70" height="108" rx="12" fill="#F97316"/><text x="297.0" y="572" text-anchor="middle" font-family="Inter,Segoe UI,Arial" font-size="18" font-weight="800" fill="#16304F">3</text><text x="297.0" y="730" text-anchor="middle" font-family="Inter,Segoe UI,Arial" font-size="16" fill="#52647C">Altos</text><rect x="384" y="474" width="70" height="216" rx="12" fill="#FBBF24"/><text x="419.0" y="464" text-anchor="middle" font-family="Inter,Segoe UI,Arial" font-size="18" font-weight="800" fill="#16304F">6</text><text x="419.0" y="730" text-anchor="middle" font-family="Inter,Segoe UI,Arial" font-size="16" fill="#52647C">Medios</text><rect x="506" y="546" width="70" height="144" rx="12" fill="#22C55E"/><text x="541.0" y="536" text-anchor="middle" font-family="Inter,Segoe UI,Arial" font-size="18" font-weight="800" fill="#16304F">4</text><text x="541.0" y="730" text-anchor="middle" font-family="Inter,Segoe UI,Arial" font-size="16" fill="#52647C">Bajos</text><rect x="628" y="366" width="70" height="324" rx="12" fill="#275EFE"/><text x="663.0" y="356" text-anchor="middle" font-family="Inter,Segoe UI,Arial" font-size="18" font-weight="800" fill="#16304F">9</text><text x="663.0" y="730" text-anchor="middle" font-family="Inter,Segoe UI,Arial" font-size="16" fill="#52647C">Hallazgos</text><rect x="750" y="330" width="70" height="360" rx="12" fill="#7C3AED"/><text x="785.0" y="320" text-anchor="middle" font-family="Inter,Segoe UI,Arial" font-size="18" font-weight="800" fill="#16304F">10</text><text x="785.0" y="730" text-anchor="middle" font-family="Inter,Segoe UI,Arial" font-size="16" fill="#52647C">Acciones</text><text x="72" y="770" font-family="Inter,Segoe UI,Arial" font-size="16" fill="#6B7A90">DATOS DE DEMOSTRACIÓN · OpenTrust Group · Auditoria365</text></svg>