<svg xmlns="http://www.w3.org/2000/svg" width="1500" height="820" viewBox="0 0 1500 820"><defs><linearGradient id="bg" x1="0" y1="0" x2="1" y2="1"><stop offset="0%" stop-color="#F6FAFF"/><stop offset="100%" stop-color="#ECF2F9"/></linearGradient><linearGradient id="hd" x1="0" y1="0" x2="1" y2="0"><stop offset="0%" stop-color="#10294D"/><stop offset="100%" stop-color="#183B6A"/></linearGradient><filter id="sh"><feDropShadow dx="0" dy="14" stdDeviation="20" flood-color="#8EA0B7" flood-opacity=".18"/></filter></defs><rect width="100%" height="100%" fill="url(#bg)"/><g filter="url(#sh)"><rect x="28" y="24" width="1444" height="772" rx="34" fill="#fff"/></g><rect x="28" y="24" width="1444" height="146" rx="34" fill="url(#hd)"/><rect x="28" y="148" width="1444" height="9" fill="#1D8A5B"/><text x="68" y="88" font-family="Inter,Segoe UI,Arial" font-size="46" font-weight="850" fill="#fff">Flujos de red y segmentación</text><text x="68" y="126" font-family="Inter,Segoe UI,Arial" font-size="21" fill="#D8E7FF">Comunicaciones permitidas entre zonas y servicios críticos</text><rect x="58.0" y="210" width="328.0" height="450" rx="24" fill="#fff" stroke="#D7E2F0"/><rect x="82.0" y="236" width="58" height="58" rx="18" fill="#1D8A5B" opacity=".12"/><circle cx="111.0" cy="265" r="10" fill="#1D8A5B"/><text x="86.0" y="330" font-family="Inter,Segoe UI,Arial" font-size="28" font-weight="800" fill="#0F172A">Usuarios</text><text x="86.0" y="372" font-family="Inter,Segoe UI,Arial" font-size="18" fill="#334155"><tspan x="86.0" dy="25">• 10.10.10.0/24</tspan><tspan x="86.0" dy="25">• HTTPS a SaaS</tspan><tspan x="86.0" dy="25">• Acceso a apps internas</tspan><tspan x="86.0" dy="25">• Sin acceso a gestión</tspan></text><rect x="410.0" y="210" width="328.0" height="450" rx="24" fill="#fff" stroke="#D7E2F0"/><rect x="434.0" y="236" width="58" height="58" rx="18" fill="#1D8A5B" opacity=".12"/><circle cx="463.0" cy="265" r="10" fill="#1D8A5B"/><text x="438.0" y="330" font-family="Inter,Segoe UI,Arial" font-size="28" font-weight="800" fill="#0F172A">Servidores</text><text x="438.0" y="372" font-family="Inter,Segoe UI,Arial" font-size="18" fill="#334155"><tspan x="438.0" dy="25">• 10.10.20.0/24</tspan><tspan x="438.0" dy="25">• Solo puertos de aplicación</tspan><tspan x="438.0" dy="25">• Administración por bastión</tspan><tspan x="438.0" dy="25">• Logs a SIEM</tspan></text><rect x="762.0" y="210" width="328.0" height="450" rx="24" fill="#fff" stroke="#D7E2F0"/><rect x="786.0" y="236" width="58" height="58" rx="18" fill="#1D8A5B" opacity=".12"/><circle cx="815.0" cy="265" r="10" fill="#1D8A5B"/><text x="790.0" y="330" font-family="Inter,Segoe UI,Arial" font-size="28" font-weight="800" fill="#0F172A">Gestión</text><text x="790.0" y="372" font-family="Inter,Segoe UI,Arial" font-size="18" fill="#334155"><tspan x="790.0" dy="25">• 10.10.30.0/24</tspan><tspan x="790.0" dy="25">• PIM obligatorio</tspan><tspan x="790.0" dy="25">• MFA resistente</tspan><tspan x="790.0" dy="25">• Sesiones registradas</tspan></text><rect x="1114.0" y="210" width="328.0" height="450" rx="24" fill="#fff" stroke="#D7E2F0"/><rect x="1138.0" y="236" width="58" height="58" rx="18" fill="#1D8A5B" opacity=".12"/><circle cx="1167.0" cy="265" r="10" fill="#1D8A5B"/><text x="1142.0" y="330" font-family="Inter,Segoe UI,Arial" font-size="28" font-weight="800" fill="#0F172A">Azure</text><text x="1142.0" y="372" font-family="Inter,Segoe UI,Arial" font-size="18" fill="#334155"><tspan x="1142.0" dy="25">• 10.20.0.0/16 prod</tspan><tspan x="1142.0" dy="25">• 10.30.0.0/16 DR</tspan><tspan x="1142.0" dy="25">• NSG por capa</tspan><tspan x="1142.0" dy="25">• Peering controlado</tspan></text><rect x="58" y="704" width="1384" height="58" rx="18" fill="#F8FBFF" stroke="#D7E2F0"/><text x="84" y="741" font-family="Inter,Segoe UI,Arial" font-size="16" fill="#52647C">DATOS DE DEMOSTRACIÓN · OpenTrust Group · Auditoria365</text></svg>