<svg xmlns="http://www.w3.org/2000/svg" viewBox="0 0 512 512" role="img" aria-label="DORA">
  <defs>
    <linearGradient id="dorag" x1="0" y1="0" x2="1" y2="1">
      <stop offset="0" stop-color="#0b1f3a"/>
      <stop offset="1" stop-color="#24496f"/>
    </linearGradient>
    <filter id="shadow" x="-20%" y="-20%" width="140%" height="140%">
      <feDropShadow dx="0" dy="10" stdDeviation="12" flood-opacity=".24"/>
    </filter>
  </defs>
  <rect x="28" y="28" width="456" height="456" rx="74" fill="url(#dorag)" filter="url(#shadow)"/>
  <path d="M150 153l37-49 51-11 34 26 38-13 47 30 17 48-13 49 23 41-37 42-44 5-29 38-58-10-39 17-49-35-7-54-31-35 22-54z"
        fill="#315579" opacity=".72"/>
  <text x="256.0" y="74.0" text-anchor="middle" font-size="39" fill="#ffcc18">★</text><text x="328.5" y="93.4" text-anchor="middle" font-size="39" fill="#ffcc18">★</text><text x="381.6" y="146.5" text-anchor="middle" font-size="39" fill="#ffcc18">★</text><text x="401.0" y="219.0" text-anchor="middle" font-size="39" fill="#ffcc18">★</text><text x="381.6" y="291.5" text-anchor="middle" font-size="39" fill="#ffcc18">★</text><text x="328.5" y="344.6" text-anchor="middle" font-size="39" fill="#ffcc18">★</text><text x="256.0" y="364.0" text-anchor="middle" font-size="39" fill="#ffcc18">★</text><text x="183.5" y="344.6" text-anchor="middle" font-size="39" fill="#ffcc18">★</text><text x="130.4" y="291.5" text-anchor="middle" font-size="39" fill="#ffcc18">★</text><text x="111.0" y="219.0" text-anchor="middle" font-size="39" fill="#ffcc18">★</text><text x="130.4" y="146.5" text-anchor="middle" font-size="39" fill="#ffcc18">★</text><text x="183.5" y="93.4" text-anchor="middle" font-size="39" fill="#ffcc18">★</text>
  <text x="256" y="228" text-anchor="middle" font-family="Arial, Helvetica, sans-serif"
        font-size="93" font-weight="800" fill="#fff">DORA</text>
  <text x="256" y="406" text-anchor="middle" font-family="Arial, Helvetica, sans-serif"
        font-size="23" font-weight="700" letter-spacing="2.5" fill="#eef5ff">RESILIENCIA OPERATIVA DIGITAL</text>
  <text x="256" y="438" text-anchor="middle" font-family="Arial, Helvetica, sans-serif"
        font-size="19" font-weight="500" fill="#aecaeb">REGLAMENTO DE LA UNIÓN EUROPEA</text>
</svg>