<svg xmlns="http://www.w3.org/2000/svg" width="1600" height="900" viewBox="0 0 1600 900"><defs><linearGradient id="bg" x1="0" y1="0" x2="1" y2="1"><stop offset="0%" stop-color="#F6FAFF"/><stop offset="100%" stop-color="#EDF3FA"/></linearGradient><linearGradient id="hd" x1="0" y1="0" x2="1" y2="0"><stop offset="0%" stop-color="#10294D"/><stop offset="100%" stop-color="#183A69"/></linearGradient><linearGradient id="bar" x1="0" y1="0" x2="1" y2="0"><stop offset="0%" stop-color="#1D8A5B"/><stop offset="100%" stop-color="#34D399"/></linearGradient><filter id="sh"><feDropShadow dx="0" dy="16" stdDeviation="20" flood-color="#8EA0B7" flood-opacity="0.18"/></filter></defs><rect width="100%" height="100%" fill="url(#bg)"/><g filter="url(#sh)"><rect x="32" y="24" width="1536" height="852" rx="34" fill="#fff"/></g><rect x="32" y="24" width="1536" height="146" rx="34" fill="url(#hd)"/><rect x="32" y="146" width="1536" height="10" fill="url(#bar)"/><text x="72" y="92" font-family="Inter,Segoe UI,Arial" font-size="48" font-weight="850" fill="#fff">Diagrama de red corporativa</text><text x="72" y="128" font-family="Inter,Segoe UI,Arial" font-size="22" fill="#D8E7FF">Segmentación, perímetro y servicios de gestión</text><rect x="1274" y="54" rx="18" width="226" height="42" fill="#fff" opacity="0.14"/><text x="1387" y="81" text-anchor="middle" font-family="Inter,Segoe UI,Arial" font-size="16" font-weight="700" fill="#fff">Evidencia de demostración</text><rect x="66" y="204" width="470" height="150" rx="22" fill="#fff" stroke="#DCE6F2"/><text x="96" y="246" font-family="Inter,Segoe UI,Arial" font-size="26" font-weight="800" fill="#0F172A">Perímetro</text><text x="96" y="282" font-family="Inter,Segoe UI,Arial" font-size="17" fill="#334155"><tspan x="96" dy="24">• Cloudflare DNS / WAF</tspan><tspan x="96" dy="24">• Fortinet IPS / SSL inspection</tspan><tspan x="96" dy="24">• Rate limiting y filtrado</tspan></text><rect x="566" y="204" width="470" height="150" rx="22" fill="#fff" stroke="#DCE6F2"/><text x="596" y="246" font-family="Inter,Segoe UI,Arial" font-size="26" font-weight="800" fill="#0F172A">Zona usuarios</text><text x="596" y="282" font-family="Inter,Segoe UI,Arial" font-size="17" fill="#334155"><tspan x="596" dy="24">• 10.10.10.0/24</tspan><tspan x="596" dy="24">• Puestos corporativos</tspan><tspan x="596" dy="24">• Salida segura a SaaS</tspan></text><rect x="66" y="379" width="470" height="150" rx="22" fill="#fff" stroke="#DCE6F2"/><text x="96" y="421" font-family="Inter,Segoe UI,Arial" font-size="26" font-weight="800" fill="#0F172A">Zona servidores</text><text x="96" y="457" font-family="Inter,Segoe UI,Arial" font-size="17" fill="#334155"><tspan x="96" dy="24">• 10.10.20.0/24</tspan><tspan x="96" dy="24">• Servicios internos</tspan><tspan x="96" dy="24">• Acceso restringido por aplicación</tspan></text><rect x="566" y="379" width="470" height="150" rx="22" fill="#fff" stroke="#DCE6F2"/><text x="596" y="421" font-family="Inter,Segoe UI,Arial" font-size="26" font-weight="800" fill="#0F172A">Zona gestión</text><text x="596" y="457" font-family="Inter,Segoe UI,Arial" font-size="17" fill="#334155"><tspan x="596" dy="24">• 10.10.30.0/24</tspan><tspan x="596" dy="24">• Administración</tspan><tspan x="596" dy="24">• Acceso solo vía PIM</tspan></text><rect x="66" y="554" width="470" height="150" rx="22" fill="#fff" stroke="#DCE6F2"/><text x="96" y="596" font-family="Inter,Segoe UI,Arial" font-size="26" font-weight="800" fill="#0F172A">Zona invitados</text><text x="96" y="632" font-family="Inter,Segoe UI,Arial" font-size="17" fill="#334155"><tspan x="96" dy="24">• 10.10.40.0/24</tspan><tspan x="96" dy="24">• Solo internet</tspan><tspan x="96" dy="24">• Aislamiento total</tspan></text><rect x="566" y="554" width="470" height="150" rx="22" fill="#fff" stroke="#DCE6F2"/><text x="596" y="596" font-family="Inter,Segoe UI,Arial" font-size="26" font-weight="800" fill="#0F172A">Azure virtual network</text><text x="596" y="632" font-family="Inter,Segoe UI,Arial" font-size="17" fill="#334155"><tspan x="596" dy="24">• 10.20.0.0/16 prod</tspan><tspan x="596" dy="24">• 10.30.0.0/16 DR</tspan><tspan x="596" dy="24">• NSG y peering controlado</tspan></text><rect x="1068" y="204" width="472" height="538" rx="24" fill="#F8FBFF" stroke="#DCE6F2"/><text x="1102" y="244" font-family="Inter,Segoe UI,Arial" font-size="28" font-weight="800" fill="#0F172A">Puntos destacados</text><rect x="1098" y="230" width="430" height="44" rx="16" fill="#fff" stroke="#DCE6F2"/><circle cx="1122" cy="252" r="6" fill="#34D399"/><text x="1140" y="258" font-family="Inter,Segoe UI,Arial" font-size="18" font-weight="700" fill="#16304F">Segregación por capas</text><rect x="1098" y="292" width="430" height="44" rx="16" fill="#fff" stroke="#DCE6F2"/><circle cx="1122" cy="314" r="6" fill="#34D399"/><text x="1140" y="320" font-family="Inter,Segoe UI,Arial" font-size="18" font-weight="700" fill="#16304F">Logs de red a Sentinel</text><rect x="1098" y="354" width="430" height="44" rx="16" fill="#fff" stroke="#DCE6F2"/><circle cx="1122" cy="376" r="6" fill="#34D399"/><text x="1140" y="382" font-family="Inter,Segoe UI,Arial" font-size="18" font-weight="700" fill="#16304F">Acceso remoto con ZTNA</text><rect x="1098" y="416" width="430" height="44" rx="16" fill="#fff" stroke="#DCE6F2"/><circle cx="1122" cy="438" r="6" fill="#34D399"/><text x="1140" y="444" font-family="Inter,Segoe UI,Arial" font-size="18" font-weight="700" fill="#16304F">Bastion para administración</text><rect x="1098" y="478" width="430" height="44" rx="16" fill="#fff" stroke="#DCE6F2"/><circle cx="1122" cy="500" r="6" fill="#34D399"/><text x="1140" y="506" font-family="Inter,Segoe UI,Arial" font-size="18" font-weight="700" fill="#16304F">Sin IP públicas innecesarias</text><rect x="1098" y="540" width="430" height="44" rx="16" fill="#fff" stroke="#DCE6F2"/><circle cx="1122" cy="562" r="6" fill="#34D399"/><text x="1140" y="568" font-family="Inter,Segoe UI,Arial" font-size="18" font-weight="700" fill="#16304F">DNS filtering</text><rect x="1098" y="602" width="430" height="44" rx="16" fill="#fff" stroke="#DCE6F2"/><circle cx="1122" cy="624" r="6" fill="#34D399"/><text x="1140" y="630" font-family="Inter,Segoe UI,Arial" font-size="18" font-weight="700" fill="#16304F">Alertas SOC</text><rect x="68" y="790" width="1460" height="56" rx="18" fill="#F8FBFF" stroke="#DCE6F2"/><text x="96" y="825" font-family="Inter,Segoe UI,Arial" font-size="17" fill="#4B5E76">OpenTrust Group · Auditoria365 · Evidencia visual demo</text></svg>