<svg xmlns="http://www.w3.org/2000/svg" width="1500" height="820" viewBox="0 0 1500 820"><defs><linearGradient id="bg" x1="0" y1="0" x2="1" y2="1"><stop offset="0%" stop-color="#F6FAFF"/><stop offset="100%" stop-color="#ECF2F9"/></linearGradient><linearGradient id="hd" x1="0" y1="0" x2="1" y2="0"><stop offset="0%" stop-color="#10294D"/><stop offset="100%" stop-color="#183B6A"/></linearGradient><filter id="sh"><feDropShadow dx="0" dy="14" stdDeviation="20" flood-color="#8EA0B7" flood-opacity=".18"/></filter></defs><rect width="100%" height="100%" fill="url(#bg)"/><g filter="url(#sh)"><rect x="28" y="24" width="1444" height="772" rx="34" fill="#fff"/></g><rect x="28" y="24" width="1444" height="146" rx="34" fill="url(#hd)"/><rect x="28" y="148" width="1444" height="9" fill="#E65A3A"/><text x="68" y="88" font-family="Inter,Segoe UI,Arial" font-size="46" font-weight="850" fill="#fff">Topología de firewalls y perímetro</text><text x="68" y="126" font-family="Inter,Segoe UI,Arial" font-size="21" fill="#D8E7FF">Conectividad de sedes, WAF, ZTNA y registro centralizado</text><rect x="58.0" y="210" width="328.0" height="450" rx="24" fill="#fff" stroke="#D7E2F0"/><rect x="82.0" y="236" width="58" height="58" rx="18" fill="#E65A3A" opacity=".12"/><circle cx="111.0" cy="265" r="10" fill="#E65A3A"/><text x="86.0" y="330" font-family="Inter,Segoe UI,Arial" font-size="28" font-weight="800" fill="#0F172A">Internet y SaaS</text><text x="86.0" y="372" font-family="Inter,Segoe UI,Arial" font-size="18" fill="#334155"><tspan x="86.0" dy="25">• Cloudflare DNS y CDN</tspan><tspan x="86.0" dy="25">• WAF gestionado</tspan><tspan x="86.0" dy="25">• Rate limiting</tspan><tspan x="86.0" dy="25">• Protección DDoS</tspan></text><rect x="410.0" y="210" width="328.0" height="450" rx="24" fill="#fff" stroke="#D7E2F0"/><rect x="434.0" y="236" width="58" height="58" rx="18" fill="#E65A3A" opacity=".12"/><circle cx="463.0" cy="265" r="10" fill="#E65A3A"/><text x="438.0" y="330" font-family="Inter,Segoe UI,Arial" font-size="28" font-weight="800" fill="#0F172A">Sede Madrid</text><text x="438.0" y="372" font-family="Inter,Segoe UI,Arial" font-size="18" fill="#334155"><tspan x="438.0" dy="25">• Fortinet 100F en HA</tspan><tspan x="438.0" dy="25">• IPS y SSL inspection</tspan><tspan x="438.0" dy="25">• VLAN usuarios/servidores</tspan><tspan x="438.0" dy="25">• Logs a Sentinel</tspan></text><rect x="762.0" y="210" width="328.0" height="450" rx="24" fill="#fff" stroke="#D7E2F0"/><rect x="786.0" y="236" width="58" height="58" rx="18" fill="#E65A3A" opacity=".12"/><circle cx="815.0" cy="265" r="10" fill="#E65A3A"/><text x="790.0" y="330" font-family="Inter,Segoe UI,Arial" font-size="28" font-weight="800" fill="#0F172A">Sede Barcelona</text><text x="790.0" y="372" font-family="Inter,Segoe UI,Arial" font-size="18" fill="#334155"><tspan x="790.0" dy="25">• Fortinet 60F</tspan><tspan x="790.0" dy="25">• Enlace principal + 5G</tspan><tspan x="790.0" dy="25">• VPN site-to-site</tspan><tspan x="790.0" dy="25">• Zona de invitados</tspan></text><rect x="1114.0" y="210" width="328.0" height="450" rx="24" fill="#fff" stroke="#D7E2F0"/><rect x="1138.0" y="236" width="58" height="58" rx="18" fill="#E65A3A" opacity=".12"/><circle cx="1167.0" cy="265" r="10" fill="#E65A3A"/><text x="1142.0" y="330" font-family="Inter,Segoe UI,Arial" font-size="28" font-weight="800" fill="#0F172A">Acceso remoto</text><text x="1142.0" y="372" font-family="Inter,Segoe UI,Arial" font-size="18" fill="#334155"><tspan x="1142.0" dy="25">• Cloudflare Access</tspan><tspan x="1142.0" dy="25">• Entra ID + MFA</tspan><tspan x="1142.0" dy="25">• Posture de dispositivo</tspan><tspan x="1142.0" dy="25">• Sin VPN tradicional</tspan></text><rect x="58" y="704" width="1384" height="58" rx="18" fill="#F8FBFF" stroke="#D7E2F0"/><text x="84" y="741" font-family="Inter,Segoe UI,Arial" font-size="16" fill="#52647C">DATOS DE DEMOSTRACIÓN · OpenTrust Group · Auditoria365</text></svg>