<svg xmlns="http://www.w3.org/2000/svg" width="1600" height="900" viewBox="0 0 1600 900"><defs><linearGradient id="hd" x1="0" x2="1"><stop stop-color="#10294D"/><stop offset="1" stop-color="#275EFE"/></linearGradient><marker id="a" markerWidth="10" markerHeight="10" refX="8" refY="5" orient="auto"><path d="M0 0 L10 5 L0 10z" fill="#24364B"/></marker></defs><rect width="1600" height="900" fill="#F5F8FC"/><rect x="30" y="30" width="1540" height="840" rx="30" fill="#fff" stroke="#D8E2EE"/><rect x="30" y="30" width="1540" height="135" rx="30" fill="url(#hd)"/><text x="70" y="88" font-family="Arial" font-weight="700" font-size="42" fill="#fff">Segmentación de red ENS - GRCREAL</text><text x="70" y="130" font-family="Arial" font-size="20" fill="#DDE9FB">Separación de exposición, aplicación, datos, gestión y monitorización</text><rect x="70" y="320" width="220" height="170" rx="18" fill="#fff" stroke="#1D4ED8" stroke-width="3"/><rect x="70" y="320" width="220" height="52" rx="18" fill="#1D4ED8"/><text x="90" y="354" font-family="Arial" font-weight="700" font-size="18" fill="#fff">INTERNET</text><text x="92" y="408" font-family="Arial" font-size="16" fill="#46576B">usuarios</text><text x="92" y="438" font-family="Arial" font-size="16" fill="#46576B">clientes</text><text x="92" y="468" font-family="Arial" font-size="16" fill="#46576B">integraciones</text><rect x="380" y="260" width="260" height="290" rx="18" fill="#fff" stroke="#0F766E" stroke-width="3"/><rect x="380" y="260" width="260" height="52" rx="18" fill="#0F766E"/><text x="400" y="294" font-family="Arial" font-weight="700" font-size="18" fill="#fff">BORDE</text><text x="402" y="348" font-family="Arial" font-size="16" fill="#46576B">DDoS</text><text x="402" y="378" font-family="Arial" font-size="16" fill="#46576B">WAF</text><text x="402" y="408" font-family="Arial" font-size="16" fill="#46576B">API Gateway</text><rect x="750" y="220" width="280" height="370" rx="18" fill="#fff" stroke="#7C3AED" stroke-width="3"/><rect x="750" y="220" width="280" height="52" rx="18" fill="#7C3AED"/><text x="770" y="254" font-family="Arial" font-weight="700" font-size="18" fill="#fff">ZONAS DE SERVICIO</text><text x="772" y="308" font-family="Arial" font-size="16" fill="#46576B">web</text><text x="772" y="338" font-family="Arial" font-size="16" fill="#46576B">API</text><text x="772" y="368" font-family="Arial" font-size="16" fill="#46576B">workers</text><text x="772" y="398" font-family="Arial" font-size="16" fill="#46576B">integración aislada</text><rect x="1140" y="220" width="360" height="370" rx="18" fill="#fff" stroke="#C2410C" stroke-width="3"/><rect x="1140" y="220" width="360" height="52" rx="18" fill="#C2410C"/><text x="1160" y="254" font-family="Arial" font-weight="700" font-size="18" fill="#fff">ZONAS RESTRINGIDAS</text><text x="1162" y="308" font-family="Arial" font-size="16" fill="#46576B">datos</text><text x="1162" y="338" font-family="Arial" font-size="16" fill="#46576B">gestión</text><text x="1162" y="368" font-family="Arial" font-size="16" fill="#46576B">backup</text><text x="1162" y="398" font-family="Arial" font-size="16" fill="#46576B">SIEM</text><line x1="290" y1="405.0" x2="380" y2="405.0" stroke="#24364B" stroke-width="3" marker-end="url(#a)"/><line x1="640" y1="405.0" x2="750" y2="405.0" stroke="#24364B" stroke-width="3" marker-end="url(#a)"/><line x1="1030" y1="405.0" x2="1140" y2="405.0" stroke="#24364B" stroke-width="3" marker-end="url(#a)"/><text x="70" y="825" font-family="Arial" font-size="17" fill="#C43F31">Arquitectura de demostración. Los flujos administrativos y de datos están segregados y registrados.</text></svg>